<svg xmlns="http://www.w3.org/2000/svg" viewBox="0 0 128 128"><defs><style>.cls-1{fill:#d6e1ea;}.cls-2{fill:#fff;}.cls-3{fill:none;stroke:#2a457f;stroke-linecap:round;stroke-linejoin:round;stroke-width:4px;}.cls-4{fill:#a6caff;}</style></defs><title>thoughts</title><g id="circles"><circle class="cls-1" cx="64" cy="64" r="54"/></g><g id="icons"><path class="cls-2" d="M69,24C50.724,24,28.746,35.178,32.439,59.095a7.879,7.879,0,0,1-1.326,5.651L22.3,76.328a2,2,0,0,0,.539,2.8l6.381,3.687A4,4,0,0,1,31,86.141v12.54a6,6,0,0,0,7.177,5.883l3.254-.651A8,8,0,0,1,51,111.758v0A6.24,6.24,0,0,0,57.24,118H86.675a6.236,6.236,0,0,0,5.7-8.779A25.2,25.2,0,0,1,90,98c0-14,16-17,16-39C106,39,95,24,69,24Z"/><path class="cls-3" d="M90.01,99a25.055,25.055,0,0,0,2.36,10.22A6.236,6.236,0,0,1,86.68,118H69"/><path class="cls-3" d="M36.45,39.02c-3.54,5.25-5.27,11.92-4.01,20.07a7.9,7.9,0,0,1-1.33,5.66L22.3,76.33a2,2,0,0,0,.54,2.8l6.38,3.68A4,4,0,0,1,31,86.14V98.68a5.992,5.992,0,0,0,7.18,5.88l3.25-.65A8,8,0,0,1,51,111.76,6.248,6.248,0,0,0,57.24,118H59"/><path class="cls-3" d="M85.87,26.7C99.85,31.88,106,44.04,106,59c0,16.44-8.93,22.27-13.45,30"/><path class="cls-3" d="M43.43,31.86C50.65,26.56,60.25,24,69,24c1.81,0,3.55.07,5.21.22"/><line class="cls-3" x1="68" y1="10" x2="68" y2="16"/><line class="cls-3" x1="51.545" y1="13.273" x2="53.841" y2="18.816"/><line class="cls-3" x1="84.455" y1="13.273" x2="82.159" y2="18.816"/><path class="cls-4" d="M88.11,63a19.711,19.711,0,0,0-.5-4.37l3.28-4.17-4-6.92-5.26.75a20.059,20.059,0,0,0-7.56-4.39L72.11,39h-8l-1.43,3.57L56.7,46.6a19.048,19.048,0,0,0-2.11,1.69l-5.27-.75-2,3.46-2,3.46,3.28,4.17a19.732,19.732,0,0,0,0,8.74l-3.28,4.17,4,6.92,5.27-.75a19.905,19.905,0,0,0,7.56,4.39L64.11,87h8l1.96-4.9a19.376,19.376,0,0,0,5.04-2.42,20.822,20.822,0,0,0,2.52-1.97l5.26.75,4-6.92-3.28-4.17A19.712,19.712,0,0,0,88.11,63Zm-20,10a10,10,0,1,1,10-10A10,10,0,0,1,68.108,73Z"/><path class="cls-3" d="M66.18,72.82a10.188,10.188,0,0,0,1.93.18,10,10,0,1,0-8.82-5.29m3.39-25.14L64.11,39h8l1.96,4.9a20.058,20.058,0,0,1,7.56,4.39l5.26-.75,4,6.92-3.28,4.17a19.347,19.347,0,0,1,0,8.74l3.28,4.17-4,6.92-5.26-.75a20.825,20.825,0,0,1-2.52,1.97,19.376,19.376,0,0,1-5.04,2.42L72.11,87h-8l-1.96-4.9a19.906,19.906,0,0,1-7.56-4.39l-5.27.75L46.74,74m1.48-9a18.851,18.851,0,0,1-.11-2,20.321,20.321,0,0,1,.49-4.37l-3.28-4.17,2-3.46,2-3.46,5.27.75a17.146,17.146,0,0,1,1.46-1.22"/></g></svg>